<?xml version="1.0" encoding="UTF-8"?>
<svg version="1.1" xmlns="http://www.w3.org/2000/svg" width="198" height="191">
<path d="M0 0 C65.34 0 130.68 0 198 0 C198 63.03 198 126.06 198 191 C132.66 191 67.32 191 0 191 C0 127.97 0 64.94 0 0 Z " fill="#FE5804" transform="translate(0,0)"/>
<path d="M0 0 C65.34 0 130.68 0 198 0 C198 63.03 198 126.06 198 191 C132.66 191 67.32 191 0 191 C0 127.97 0 64.94 0 0 Z M53 30 C52.030625 30.7734375 51.06125 31.546875 50.0625 32.34375 C36.121001 43.98204176 27.10240146 63.16852094 25 81 C24.09237128 92.58484182 24.43597292 103.86432739 28 115 C28.29003906 115.9384375 28.58007812 116.876875 28.87890625 117.84375 C35.33854305 137.08752154 48.38504268 152.98807981 66 163 C67.20269531 163.69416016 67.20269531 163.69416016 68.4296875 164.40234375 C77.36059767 169.21917891 87.80965013 172.57093264 98 173 C99.08539063 173.0515625 100.17078125 173.103125 101.2890625 173.15625 C120.52072084 173.63405518 139.99553172 168.43227372 155 156 C155.90105469 155.27167969 156.80210937 154.54335937 157.73046875 153.79296875 C172.5768496 141.11723117 183.225163 122.61890895 185 103 C186.74566608 77.71693626 180.70720275 56.02008583 164.25 36.3125 C151.52360788 22.62048669 135.84766055 15.81570674 118 12 C117.35135986 11.8249292 116.70271973 11.6498584 116.03442383 11.46948242 C94.0942758 6.40637134 69.41319843 15.6786798 53 30 Z " fill="#FCF9F5" transform="translate(0,0)"/>
<path d="M0 0 C0.99 0 1.98 0 3 0 C4.6875 2.5 4.6875 2.5 6 5 C5.13375 5.83144531 4.2675 6.66289063 3.375 7.51953125 C2.24960943 8.61678706 1.12463066 9.71446534 0 10.8125 C-0.85851562 11.63331055 -0.85851562 11.63331055 -1.734375 12.47070312 C-3.21400538 13.92391154 -4.61296658 15.45816374 -6 17 C-6 17.99 -6 18.98 -6 20 C-2.09714233 18.41332422 0.33520982 15.86649519 3.25 12.875 C4.14203125 11.96492188 5.0340625 11.05484375 5.953125 10.1171875 C6.62859375 9.41851562 7.3040625 8.71984375 8 8 C9.32 8.66 10.64 9.32 12 10 C12 14 12 14 9.59375 16.69140625 C8.57208885 17.65866726 7.54038996 18.61541283 6.5 19.5625 C4.57927026 21.32513528 2.79066746 23.09596236 1 25 C1 25.99 1 26.98 1 28 C2.32 28.33 3.64 28.66 5 29 C5.09087891 28.17242187 5.09087891 28.17242187 5.18359375 27.328125 C6.36123477 23.96987598 8.51490331 22.20085251 11.0625 19.75 C11.98160156 18.85796875 12.90070313 17.9659375 13.84765625 17.046875 C14.55792969 16.37140625 15.26820312 15.6959375 16 15 C17.32 15.66 18.64 16.32 20 17 C19.47247976 20.81794829 18.63942615 22.88421098 16.015625 25.69921875 C15.40976563 26.35083984 14.80390625 27.00246094 14.1796875 27.67382812 C13.22449219 28.6705957 13.22449219 28.6705957 12.25 29.6875 C11.62867188 30.36361328 11.00734375 31.03972656 10.3671875 31.73632812 C4.44976509 38.00954492 4.44976509 38.00954492 0 39 C-2.68359375 39.01953125 -2.68359375 39.01953125 -5.4375 38.8125 C-9.45739629 38.75330474 -10.71908711 38.82713053 -14.25 41 C-15.20239215 41.96603674 -16.11695217 42.9701921 -17 44 C-17.55042969 44.61617187 -18.10085937 45.23234375 -18.66796875 45.8671875 C-19.85932617 47.21897053 -21.03887116 48.58124605 -22.20703125 49.953125 C-24.47535122 52.54266676 -26.9107687 54.92674703 -29.37109375 57.33203125 C-30.92561928 58.92383557 -32.30731465 60.56933012 -33.6875 62.3125 C-36.99328859 66.15436242 -36.99328859 66.15436242 -40 67 C-42.75 66.625 -42.75 66.625 -45 66 C-44.91377507 61.21451621 -44.21438705 58.80035909 -40.8671875 55.31640625 C-39.55046593 54.05037256 -38.21901386 52.79952213 -36.875 51.5625 C-35.49964043 50.24522231 -34.1259202 48.92623072 -32.75390625 47.60546875 C-32.09922363 46.9820459 -31.44454102 46.35862305 -30.77001953 45.71630859 C-28.1062798 43.13339958 -25.6633977 40.40134053 -23.296875 37.546875 C-22 36 -22 36 -19.5625 33.625 C-17.78453194 30.63801366 -17.87341983 29.45991167 -18 26.0625 C-18.16308453 21.02911846 -17.41381254 18.90150005 -14 15 C-11.51278547 12.45081169 -9.00047118 9.93795466 -6.4375 7.46484375 C-3.93585928 5.04337023 -3.93585928 5.04337023 -1.875 2.19140625 C-1.25625 1.46824219 -0.6375 0.74507813 0 0 Z " fill="#FCF3EE" transform="translate(104,71)"/>
<path d="M0 0 C1.12019531 -0.00128906 2.24039063 -0.00257812 3.39453125 -0.00390625 C4.57402344 -0.00003906 5.75351563 0.00382812 6.96875 0.0078125 C8.73798828 0.00201172 8.73798828 0.00201172 10.54296875 -0.00390625 C12.22326172 -0.00197266 12.22326172 -0.00197266 13.9375 0 C14.97326172 0.00112793 16.00902344 0.00225586 17.07617188 0.00341797 C19.46875 0.1328125 19.46875 0.1328125 20.46875 1.1328125 C20.56834621 2.97440273 20.59955411 4.81978217 20.6015625 6.6640625 C20.60349609 8.34435547 20.60349609 8.34435547 20.60546875 10.05859375 C20.60160156 11.23808594 20.59773438 12.41757812 20.59375 13.6328125 C20.59955078 15.40205078 20.59955078 15.40205078 20.60546875 17.20703125 C20.60417969 18.32722656 20.60289063 19.44742188 20.6015625 20.6015625 C20.60043457 21.63732422 20.59930664 22.67308594 20.59814453 23.74023438 C20.46875 26.1328125 20.46875 26.1328125 19.46875 27.1328125 C17.62715977 27.23240871 15.78178033 27.26361661 13.9375 27.265625 C12.81730469 27.26691406 11.69710937 27.26820312 10.54296875 27.26953125 C9.36347656 27.26566406 8.18398437 27.26179688 6.96875 27.2578125 C5.19951172 27.26361328 5.19951172 27.26361328 3.39453125 27.26953125 C1.71423828 27.26759766 1.71423828 27.26759766 0 27.265625 C-1.03576172 27.26449707 -2.07152344 27.26336914 -3.13867188 27.26220703 C-5.53125 27.1328125 -5.53125 27.1328125 -6.53125 26.1328125 C-6.63084621 24.29122227 -6.66205411 22.44584283 -6.6640625 20.6015625 C-6.66535156 19.48136719 -6.66664062 18.36117187 -6.66796875 17.20703125 C-6.66410156 16.02753906 -6.66023438 14.84804688 -6.65625 13.6328125 C-6.66011719 12.45332031 -6.66398437 11.27382813 -6.66796875 10.05859375 C-6.66667969 8.93839844 -6.66539063 7.81820312 -6.6640625 6.6640625 C-6.66293457 5.62830078 -6.66180664 4.59253906 -6.66064453 3.52539062 C-6.41664411 -0.98631532 -3.94948587 0.00430093 0 0 Z " fill="#FCF4EF" transform="translate(64.53125,41.8671875)"/>
<path d="M0 0 C1.5631897 0.00785522 1.5631897 0.00785522 3.15795898 0.01586914 C4.28266602 0.0190918 5.40737305 0.02231445 6.56616211 0.02563477 C7.75016602 0.03401367 8.93416992 0.04239258 10.15405273 0.05102539 C11.34192383 0.05553711 12.52979492 0.06004883 13.75366211 0.06469727 C16.69967499 0.07652864 19.64558954 0.09301252 22.59155273 0.11352539 C23.88932191 2.70906373 23.72105308 4.62058066 23.72436523 7.52368164 C23.72629883 9.13146484 23.72629883 9.13146484 23.72827148 10.77172852 C23.7244043 11.89514648 23.72053711 13.01856445 23.71655273 14.17602539 C23.72235352 15.86695313 23.72235352 15.86695313 23.72827148 17.59204102 C23.72698242 18.66260742 23.72569336 19.73317383 23.72436523 20.83618164 C23.7232373 21.82368408 23.72210938 22.81118652 23.72094727 23.82861328 C23.59155273 26.11352539 23.59155273 26.11352539 22.59155273 27.11352539 C20.74996251 27.2131216 18.90458306 27.2443295 17.06030273 27.24633789 C15.94010742 27.24762695 14.81991211 27.24891602 13.66577148 27.25024414 C12.4862793 27.24637695 11.30678711 27.24250977 10.09155273 27.23852539 C8.32231445 27.24432617 8.32231445 27.24432617 6.51733398 27.25024414 C4.83704102 27.24831055 4.83704102 27.24831055 3.12280273 27.24633789 C2.08704102 27.24520996 1.0512793 27.24408203 -0.01586914 27.24291992 C-2.40844727 27.11352539 -2.40844727 27.11352539 -3.40844727 26.11352539 C-3.50804347 24.27193516 -3.53925137 22.42655572 -3.54125977 20.58227539 C-3.54254883 19.46208008 -3.54383789 18.34188477 -3.54516602 17.18774414 C-3.54129883 16.00825195 -3.53743164 14.82875977 -3.53344727 13.61352539 C-3.53731445 12.4340332 -3.54118164 11.25454102 -3.54516602 10.03930664 C-3.54387695 8.91911133 -3.54258789 7.79891602 -3.54125977 6.64477539 C-3.54013184 5.60901367 -3.53900391 4.57325195 -3.5378418 3.50610352 C-3.36284722 0.27035479 -3.23899974 0.1526746 0 0 Z " fill="#FCF4EF" transform="translate(129.408447265625,41.886474609375)"/>
<path d="M0 0 C1.12019531 -0.00128906 2.24039063 -0.00257812 3.39453125 -0.00390625 C4.57402344 -0.00003906 5.75351563 0.00382812 6.96875 0.0078125 C8.73798828 0.00201172 8.73798828 0.00201172 10.54296875 -0.00390625 C12.22326172 -0.00197266 12.22326172 -0.00197266 13.9375 0 C14.97326172 0.00112793 16.00902344 0.00225586 17.07617188 0.00341797 C19.46875 0.1328125 19.46875 0.1328125 20.46875 1.1328125 C20.56821453 2.90140443 20.59955217 4.67392701 20.6015625 6.4453125 C20.60349609 8.05792969 20.60349609 8.05792969 20.60546875 9.703125 C20.60160156 10.83492187 20.59773438 11.96671875 20.59375 13.1328125 C20.59955078 14.83050781 20.59955078 14.83050781 20.60546875 16.5625 C20.60417969 17.63757813 20.60289062 18.71265625 20.6015625 19.8203125 C20.60043457 20.81417969 20.59930664 21.80804688 20.59814453 22.83203125 C20.46875 25.1328125 20.46875 25.1328125 19.46875 26.1328125 C17.54207493 26.22029457 15.61223139 26.23978584 13.68359375 26.23046875 C12.51376953 26.22724609 11.34394531 26.22402344 10.13867188 26.22070312 C8.29112305 26.20813477 8.29112305 26.20813477 6.40625 26.1953125 C4.55290039 26.18854492 4.55290039 26.18854492 2.66210938 26.18164062 C-0.40239117 26.16980858 -3.46679721 26.15332423 -6.53125 26.1328125 C-6.56011751 21.98699363 -6.57800327 17.84120034 -6.59375 13.6953125 C-6.60212891 12.51130859 -6.61050781 11.32730469 -6.61914062 10.10742188 C-6.62236328 8.98271484 -6.62558594 7.85800781 -6.62890625 6.69921875 C-6.63414307 5.65709229 -6.63937988 4.61496582 -6.64477539 3.54125977 C-6.43122622 -0.98919732 -3.95971296 0.00431207 0 0 Z " fill="#FCF6F1" transform="translate(132.53125,109.8671875)"/>
<path d="M0 0 C4.29 0 8.58 0 13 0 C13 4.29 13 8.58 13 13 C8.71 13 4.42 13 0 13 C0 8.71 0 4.42 0 0 Z " fill="#FE6C27" transform="translate(133,117)"/>
<path d="M0 0 C4.29 0 8.58 0 13 0 C13 3.96 13 7.92 13 12 C8.71 12 4.42 12 0 12 C0 8.04 0 4.08 0 0 Z " fill="#FE651E" transform="translate(133,50)"/>
<path d="M0 0 C4.29 0 8.58 0 13 0 C13 3.96 13 7.92 13 12 C8.71 12 4.42 12 0 12 C0 8.04 0 4.08 0 0 Z " fill="#FE621C" transform="translate(65,50)"/>
<path d="M0 0 C5.61 0 11.22 0 17 0 C17 2.64 17 5.28 17 8 C11.39 8 5.78 8 0 8 C0 5.36 0 2.72 0 0 Z " fill="#FDEFE9" transform="translate(99,42)"/>
<path d="M0 0 C5.61 0 11.22 0 17 0 C17 2.31 17 4.62 17 7 C11.39 7 5.78 7 0 7 C0 4.69 0 2.38 0 0 Z " fill="#FCF4EF" transform="translate(93,129)"/>
<path d="M0 0 C2.31 0 4.62 0 7 0 C7 5.61 7 11.22 7 17 C4.69 17 2.38 17 0 17 C0 11.39 0 5.78 0 0 Z " fill="#FDF5F1" transform="translate(58,85)"/>
<path d="M0 0 C2.64 0 5.28 0 8 0 C8 4.62 8 9.24 8 14 C5.36 14 2.72 14 0 14 C0 9.38 0 4.76 0 0 Z " fill="#FDEEE8" transform="translate(145,81)"/>
<path d="M0 0 C0.66 0.33 1.32 0.66 2 1 C-1.52972094 3.3531473 -3.19893833 3.22171605 -7.375 3.3125 C-12.88640199 3.51328202 -12.88640199 3.51328202 -17.1875 6.5625 C-17.785625 7.366875 -18.38375 8.17125 -19 9 C-19.66 9 -20.32 9 -21 9 C-19.47413257 5.11597381 -17.62951461 3.07400835 -14 1 C-11.13917069 0.76962575 -8.38895684 0.8117926 -5.5234375 0.95703125 C-2.87207846 1.14198929 -2.87207846 1.14198929 0 0 Z " fill="#FE6F3D" transform="translate(107,108)"/>
<path d="M0 0 C0.99 0.33 1.98 0.66 3 1 C2.34 1 1.68 1 1 1 C0.73719238 1.5887793 0.47438477 2.17755859 0.20361328 2.78417969 C-1.05616181 5.10339241 -2.38004021 6.60949403 -4.2578125 8.453125 C-4.88300781 9.071875 -5.50820312 9.690625 -6.15234375 10.328125 C-6.80332031 10.96234375 -7.45429687 11.5965625 -8.125 12.25 C-8.78371094 12.8996875 -9.44242187 13.549375 -10.12109375 14.21875 C-11.74296643 15.81711727 -13.3693281 17.41061897 -15 19 C-15 16 -15 16 -12.734375 13.4765625 C-11.74693849 12.51840309 -10.75178056 11.56815218 -9.75 10.625 C-6.23274564 7.2646835 -2.95918421 3.87512217 0 0 Z " fill="#FDDFD5" transform="translate(104,71)"/>
<path d="M0 0 C0.99 0.33 1.98 0.66 3 1 C-0.3 4.3 -3.6 7.6 -7 11 C-7.99 10.67 -8.98 10.34 -10 10 C-9.67 8.68 -9.34 7.36 -9 6 C-8.01 6 -7.02 6 -6 6 C-4.33243964 4.69563273 -4.33243964 4.69563273 -2.8125 3 C-2.28269531 2.443125 -1.75289062 1.88625 -1.20703125 1.3125 C-0.80871094 0.879375 -0.41039063 0.44625 0 0 Z " fill="#FE5817" transform="translate(107,81)"/>
<path d="M0 0 C0.66 0.33 1.32 0.66 2 1 C-1.63 4.63 -5.26 8.26 -9 12 C-9.66 11.67 -10.32 11.34 -11 11 C-7.33333333 7.33333333 -3.66666667 3.66666667 0 0 Z " fill="#FE662C" transform="translate(56,27)"/>
<path d="M0 0 C0.33 0.66 0.66 1.32 1 2 C0.67 2.66 0.34 3.32 0 4 C0.66 4.33 1.32 4.66 2 5 C2 5.66 2 6.32 2 7 C0.35 6.67 -1.3 6.34 -3 6 C-2.42655063 3.13275314 -2.1385485 2.1385485 0 0 Z " fill="#FE7F56" transform="translate(107,93)"/>
</svg>
